<svg xmlns="http://www.w3.org/2000/svg" viewBox="0 0 24 24" fill="none" stroke="currentColor" stroke-width="1.8" stroke-linecap="round" stroke-linejoin="round">
  <!-- Folder -->
  <path d="M3 7.5A2.5 2.5 0 0 1 5.5 5H9l2 2.5h7.5A2.5 2.5 0 0 1 21 10v7.5A2.5 2.5 0 0 1 18.5 20h-13A2.5 2.5 0 0 1 3 17.5v-10Z"/>
  <!-- Git branch inside folder -->
  <circle cx="9" cy="11" r="1.3"/>
  <circle cx="15" cy="8" r="1.3"/>
  <circle cx="15" cy="15" r="1.3"/>
  <path d="M9 12.3v2.4a2.3 2.3 0 0 0 2.3 2.3H15"/>
  <path d="M10.1 10a3 3 0 0 1 3.4-1.5"/>
</svg>
